<svg xmlns="http://www.w3.org/2000/svg" xmlns:xlink="http://www.w3.org/1999/xlink" width="150.00009155273438" height="151.55859375" viewBox="0 0 150.00009155273438 151.55859375" fill="none">
<path d="M125.769 27.5367C125.429 26.9504 125.059 26.4386 124.662 25.9908C124.364 25.8851 124.091 25.6591 123.849 25.2953C123.797 25.2164 123.744 25.1381 123.692 25.0604C118.979 21.2341 111.426 23.9299 105.29 20.1722C114.137 16.6942 119.552 18.9402 123.692 25.0604C124.03 25.3353 124.354 25.6438 124.662 25.9908C125.15 26.164 125.706 26.0134 126.302 25.6155C126.409 24.5482 126.409 23.4809 126.409 22.4136C126.089 13.0212 126.089 13.0212 116.916 12.8078C114.143 12.701 111.263 12.701 108.489 12.8078C104.01 13.0212 100.81 11.9539 101.023 6.51061C101.236 1.38751 98.2499 0 93.6634 0C80.8639 0.106731 68.1711 0 55.4783 0C53.3451 0 51.2118 0.320194 49.8252 2.24136C60.9181 9.17889 73.0776 4.80291 84.4904 5.76349C87.477 5.4433 90.5702 4.58944 93.4501 7.57792C91.8501 10.2462 88.6503 10.0327 86.6237 11.527C85.7704 12.1674 85.2371 13.0212 85.0238 14.0885C85.2371 15.1558 85.7704 16.1164 86.7304 16.7568C89.2902 18.678 93.7701 18.678 94.1967 22.0934C95.5833 33.7271 103.583 40.7713 110.836 48.6695C115.849 54.2195 120.116 55.9272 125.769 50.4839C128.755 42.7992 129.075 35.2213 125.769 27.5367ZM123.692 25.0604C123.744 25.1381 123.797 25.2164 123.849 25.2953C124.091 25.6591 124.364 25.8851 124.662 25.9908C124.354 25.6438 124.03 25.3353 123.692 25.0604ZM105.29 20.1722C111.426 23.9299 118.979 21.2341 123.692 25.0604C119.552 18.9402 114.137 16.6942 105.29 20.1722Z" fill-rule="evenodd"  fill="#EBEDCE" >
</path>
<path d="M53.4518 29.7778C53.7718 28.924 53.9851 27.9634 54.1984 27.0028C54.4118 26.149 54.6251 25.1884 54.7317 24.2278C55.3717 22.5201 54.7317 19.7451 58.0383 20.3855C60.7048 23.4807 60.3848 29.0307 65.8246 30.098C68.5978 30.6317 71.2644 30.2047 73.611 28.497C76.0642 21.773 78.3041 14.9422 86.5171 13.1277L87.3704 13.4479L88.117 13.021C90.8902 9.39215 91.2102 5.87002 88.117 2.34789C75.3176 1.28058 62.6247 1.49404 49.8253 2.24116L49.9319 2.24116C46.6254 9.92581 50.6786 18.2508 47.692 25.8288C45.0255 26.4692 42.3589 26.3624 39.6924 25.9355C39.0524 26.7893 39.0524 27.7499 39.6924 28.6038C43.3189 31.0586 44.7055 35.4346 47.692 38.4231C53.4518 38.1029 51.7452 32.873 53.4518 29.7778Z"   fill="#363636" >
</path>
<path d="M135.688 52.6187C131.635 64.7861 133.769 77.2736 133.982 89.6545C134.942 101.715 134.942 101.715 149.021 101.075C150.728 88.9073 149.661 76.6332 149.768 64.3591C149.981 51.5514 149.768 51.5514 137.075 51.2312C136.542 51.6581 136.115 52.1918 135.688 52.6187Z"   fill="#373737" >
</path>
<path d="M49.8253 138.644C49.8253 140.032 49.7186 141.526 49.7186 142.913C49.8253 151.452 49.8253 151.558 58.4649 151.558C71.9043 151.558 85.3438 151.452 98.7832 151.452C99.5299 150.598 99.5299 149.744 98.8899 148.89C89.6103 145.582 100.383 142.273 98.8899 138.964C96.1167 135.335 91.8502 136.082 88.117 135.549C84.0638 135.229 80.1173 135.229 76.0642 135.656C74.8909 135.656 73.8243 135.656 72.651 135.656C66.4646 135.442 60.2782 135.229 54.0918 136.082C53.0251 136.296 51.9585 136.723 50.9985 137.363C50.5719 137.79 50.2519 138.217 49.8253 138.644Z"   fill="#3F3F3F" >
</path>
<path d="M14.3067 79.5147C14.7334 74.1781 14.6267 68.9483 14.4134 63.6117C13.9868 52.5117 12.6001 51.5511 0.653973 53.3655C-0.199325 64.679 -0.199325 76.0993 0.547311 87.5195C10.4669 91.1484 13.5601 89.4407 14.3067 79.5147Z"   fill="#343434" >
</path>
<path d="M49.6901 138.646C49.6295 138.717 49.5679 138.787 49.5053 138.857L49.8253 138.644C49.7802 138.645 49.7351 138.646 49.6901 138.646ZM50.7852 126.05C44.0655 120.713 36.3858 122.741 28.9195 123.168C27.7462 123.488 26.5729 124.022 25.5063 124.662C25.0796 125.089 24.653 125.623 24.2263 126.05C24.333 127.757 24.4397 129.572 24.5463 131.279C24.973 138.751 24.973 138.857 32.0127 138.964C37.9407 138.964 43.7637 138.754 49.6901 138.646C53.0356 134.756 53.2996 130.557 50.7852 126.05Z" fill-rule="evenodd"  fill="#3F3F3F" >
</path>
<path d="M125.769 52.4051C129.929 54.7532 133.768 54.3262 137.288 51.1243L137.075 51.231C137.075 46.7483 137.288 42.1589 137.288 37.6762C137.288 26.6828 137.288 26.6828 126.409 25.5088C125.84 25.9832 125.271 26.0359 124.702 25.8168C124.7 34.2501 124.595 42.5818 124.595 51.0176C125.022 51.4445 125.342 51.9781 125.769 52.4051ZM124.702 25.5088L124.489 25.7223C124.56 25.7578 124.631 25.7894 124.702 25.8168C124.702 25.7142 124.702 25.6115 124.702 25.5088Z" fill-rule="evenodd"  fill="#3E3E3E" >
</path>
<path d="M124.915 101.074C123.742 101.821 122.889 102.782 122.356 103.956C120.436 111.534 119.156 119.112 124.169 126.156C128.542 127.437 132.808 127.757 136.968 125.836C137.182 117.938 137.502 110.04 137.715 102.142C133.662 99.0465 129.395 98.833 124.915 101.074Z"   fill="#3A3A39" >
</path>
<path d="M23.9064 125.943C28.0662 121.674 27.2129 116.23 26.9996 111.107C26.5729 100.968 23.9064 99.1534 12.9202 100.968C12.4935 101.395 11.9602 101.928 11.4269 102.355C13.1335 107.372 12.0669 112.708 12.2802 117.831C12.6002 126.05 12.4935 126.156 21.1331 126.156C22.1998 126.156 23.1597 126.05 24.2263 125.943L23.9064 125.943Z"   fill="#333333" >
</path>
<path d="M0.653925 53.2586C11.2135 53.7923 11.2135 53.7923 11.3201 63.6115C11.3201 68.201 11.3201 72.6837 11.3201 77.2731C11.2135 87.0924 11.2135 87.0924 0.547263 87.5193C0.547263 88.2665 0.547263 88.9069 0.333939 89.5472C4.81375 92.429 8.22694 96.378 11.0002 100.754C12.0668 101.181 12.9201 101.074 13.88 100.541C16.0133 95.204 21.5597 92.9626 24.7596 88.5867C24.7596 87.5193 24.2263 86.5588 23.373 85.8116C17.0799 82.7164 17.1866 77.0597 16.8666 71.2962C16.2266 61.1567 19.2132 50.6971 14.4134 40.9845C13.4534 39.9172 12.4934 39.9172 11.4268 40.8778C12.0668 50.0567 12.0668 50.0567 3.53381 51.124C2.1472 51.3375 0.973912 51.6576 0.653925 53.2586Z"   fill="#4D4D4D" >
</path>
<path d="M148.915 101.075C147.955 100.968 146.888 100.861 145.928 100.861C137.822 100.541 137.822 100.541 137.288 92.5361C137.288 91.5756 137.075 90.5083 136.968 89.5477C132.595 86.0255 128.222 86.0255 123.849 89.4409C120.969 93.9237 120.329 98.2996 124.702 102.355C129.075 102.249 133.342 102.249 137.715 102.142C141.555 102.142 145.501 103.636 148.915 101.075Z"   fill="#F48E8E" >
</path>
<path d="M24.973 38.53C27.5329 34.6877 27.6395 30.7386 25.5063 26.6828C25.0796 26.3626 24.653 25.9357 24.2264 25.5088C11.4269 25.9357 11.4269 25.9357 11.5335 38.7435C11.5335 39.4906 11.4269 40.131 11.4269 40.8781C11.8535 40.4512 12.4935 40.131 13.2401 40.131C17.4 41.6252 21.3465 41.9454 24.973 38.53Z"   fill="#FFFFFA" >
</path>
<path d="M10.4669 102.035C10.7869 102.142 11.1069 102.355 11.4268 102.462L11.2135 102.676C12.6001 101.822 12.7068 101.075 11.3202 100.221C10.5735 89.9745 10.5735 89.9745 0.547288 89.6543C-0.199348 100.648 -0.199348 100.648 10.4669 102.035Z"   fill="#343434" >
</path>
<path d="M35.6392 26.6827C36.0658 26.2557 36.3858 25.7221 36.8125 25.2952C36.4925 15.7961 34.6792 13.5547 28.2795 15.0489C21.9864 16.5432 24.973 21.8797 24.1197 25.6153C27.6395 28.8173 31.4794 29.1375 35.6392 26.6827Z"   fill="#FFFFFA" >
</path>
<path d="M124.702 138.857C124.169 138.003 123.529 137.256 122.676 136.829C117.236 134.054 110.729 137.576 105.396 134.054C103.903 132.24 103.69 129.999 102.943 127.971C102.623 127.117 102.09 126.263 101.45 125.623C101.023 125.516 100.596 125.302 100.17 125.089C99.6365 125.196 99.2099 125.196 98.6766 125.302C97.9299 125.836 97.29 126.583 96.7566 127.437C96.4367 133.2 88.6503 132.987 88.117 138.537C91.4235 140.138 95.9034 136.936 98.6766 140.885C96.4367 143.767 96.4367 146.542 98.6766 149.317C98.8899 149.957 98.9966 150.704 98.7832 151.345C99.4232 150.598 100.49 149.851 100.703 148.997C102.836 140.885 102.836 140.992 110.409 140.672C115.209 140.351 120.329 142.059 124.702 138.857Z"   fill="#D9D9B1" >
</path>
<path d="M122.996 127.224C121.076 131.173 121.076 134.908 124.062 138.43L124.702 138.964C125.342 131.386 130.142 127.651 136.968 125.836C132.702 125.943 128.542 125.943 124.276 126.05C123.849 126.477 123.422 126.797 122.996 127.224Z"   fill="#D9D9B1" >
</path>
<path d="M47.692 8.96552C47.692 14.5155 47.692 20.1723 47.692 25.8291C49.9319 25.2954 49.8252 23.481 49.8252 21.7733C49.8252 15.2627 49.9319 8.75206 49.9319 2.24146C47.5853 3.94915 47.5853 6.40397 47.692 8.96552Z"   fill="#D6D6D6" >
</path>
<path d="M36.8125 25.4019L36.7058 25.5086C35.9592 26.0422 35.8525 26.5759 36.3859 27.323C36.8125 27.9634 37.4525 28.2836 38.1991 28.2836L39.0524 27.7499C39.0524 27.1096 39.2657 26.4692 39.5857 25.9355C38.6258 25.722 37.6658 25.5086 36.8125 25.4019Z"   fill="#D6D6D6" >
</path>
<path d="M61.9847 50.9106C61.2381 51.6577 60.7048 52.6183 60.3848 53.5789C59.4248 57.5279 59.5315 61.2635 62.1981 64.6789C69.5578 67.5607 73.3976 72.1501 72.011 80.7954C70.9444 87.306 64.2246 86.3454 61.4514 90.1877C59.6382 92.9627 59.2115 96.1646 59.4248 99.4733C59.2115 102.889 59.5315 106.411 57.9316 109.72C55.6917 113.562 49.9319 112.174 48.012 116.55C46.5187 120.179 47.2654 123.488 49.6119 126.583C49.6119 130.639 49.6119 134.801 49.6119 138.964C50.3586 138.857 51.1052 138.644 51.8518 138.537C55.265 135.548 55.4783 129.572 61.9847 129.251C69.1311 128.931 69.7711 135.228 73.1843 138.537C73.8242 138.537 74.5709 138.537 75.2109 138.537C78.7307 132.453 83.3172 128.291 91.1035 129.145C93.9834 129.465 96.65 128.184 98.6765 126.049L98.5699 125.729C101.556 122.634 101.876 119.325 99.9565 115.59C94.73 109.506 86.6237 114.522 80.7573 110.68C78.7307 108.652 79.264 106.731 81.2906 105.023C91.6368 102.248 102.09 102.995 112.543 104.49C116.916 105.13 120.862 105.664 124.489 102.569L124.809 102.355C124.595 98.0858 124.275 93.7098 124.062 89.4406C123.742 89.1204 123.422 88.6935 123.422 88.6935C115.742 83.9973 112.543 75.2453 116.596 69.9088C119.156 66.4934 124.702 67.3472 126.622 62.9712C128.329 58.702 127.795 54.8597 125.022 51.2308L124.915 51.3375C119.049 51.9779 113.503 52.4048 113.503 43.6529C113.503 39.8106 109.876 38.85 106.463 38.7432C103.05 38.5298 101.343 36.9288 101.13 33.5134C101.023 31.4855 100.596 29.2442 99.7432 27.4297C98.0366 23.9076 100.596 19.1047 97.0766 16.5432C93.8767 14.1951 89.5036 16.1162 85.7704 14.9422C81.8239 14.622 76.8108 11.5268 74.8909 17.1835C73.6109 20.9191 73.0776 25.722 78.1974 28.2836C88.0103 33.1932 80.7573 34.6875 76.3841 36.8221C75.5308 37.3557 74.7842 37.9961 74.1442 38.85C73.2909 46.2144 67.9578 48.8827 61.9847 50.9106Z"   fill="#FDFFE9" >
</path>
<path d="M124.597 25.5545C124.597 25.5944 124.596 25.6344 124.596 25.6746C124.655 25.6117 124.809 25.5088 124.809 25.5088C124.738 25.5243 124.668 25.5395 124.597 25.5545ZM113.609 14.0885C111.049 14.0885 108.596 14.1952 106.143 13.9818C101.237 13.6616 100.383 16.3299 100.383 20.4924C100.383 24.4414 101.663 26.4693 105.823 26.1491C112.045 25.727 118.372 26.8701 124.597 25.5545C124.717 13.6636 126.243 13.876 113.609 14.0885ZM124.596 25.7222C124.596 25.7063 124.596 25.6905 124.596 25.6746C124.57 25.7023 124.563 25.7222 124.596 25.7222Z" fill-rule="evenodd"  fill="#343434" >
</path>
<path d="M73.1842 25.2956C73.1842 26.0427 73.2909 26.6831 73.2909 27.4302C72.2243 31.486 71.4776 35.5418 75.5308 38.637C77.2374 38.7437 79.0507 38.9572 80.7573 38.8504C87.2637 38.637 88.437 36.9293 87.5836 30.5254C87.0503 26.5763 84.4904 26.0427 81.6106 26.3629C75.5308 27.11 74.5709 23.8013 75.1042 18.8917C75.2108 17.5042 75.5308 16.1167 75.7441 14.9426C79.1573 13.8753 82.3572 14.0888 85.4504 14.6224C85.8771 14.1955 86.197 13.6619 86.517 13.0215C72.9709 12.1676 72.9709 12.1676 73.1842 25.2956Z"   fill="#484846" >
</path>
<path d="M93.2368 13.7682C97.7166 14.3019 99.6365 12.4874 99.6365 7.79127C99.7432 3.09509 97.8233 1.28066 93.3435 1.81432C91.6369 1.92105 89.8236 2.13451 88.117 2.34797C88.117 5.8701 88.117 9.49897 88.117 13.0211C89.8236 13.2346 91.6369 13.5548 93.2368 13.7682Z"   fill="#333333" >
</path>
<path d="M51.7452 27.7501C55.905 31.4856 54.1984 36.8222 55.905 42.2655C58.0383 35.7549 56.0117 31.3789 51.7452 27.7501ZM51.7452 27.7501C47.7987 30.3116 51.3185 35.6482 47.692 38.3164C47.372 38.5299 46.9454 38.8501 46.4121 39.0636C44.7055 43.7597 40.8656 46.428 36.9191 48.7761C36.3858 49.63 36.2792 50.6973 36.5992 51.6579C37.3458 52.5117 38.1991 53.0454 39.2657 53.4723C43.1055 54.6463 47.052 54.2194 50.9986 54.4329C55.265 54.8598 59.2115 54.3261 62.6247 51.4444L62.5181 51.4444C65.9313 47.6021 66.1446 42.7992 67.1045 38.103C67.6379 34.3674 67.3179 30.8453 64.5447 27.8568C62.3047 26.2558 62.4114 23.801 62.4114 21.4529C62.4114 19.1048 62.6247 16.65 60.2782 15.1558C57.185 18.3577 55.585 22.8404 51.8518 25.6154C51.8518 26.3625 51.7452 27.0029 51.7452 27.7501C56.0117 31.3789 58.0383 35.7549 55.905 42.2655C54.1984 36.8222 55.905 31.4856 51.7452 27.7501Z" fill-rule="evenodd"  fill="#1A1A1A" >
</path>
<path d="M75.5151 38.6481C74.9215 34.9354 76.6752 30.7115 73.291 27.5369C70.4112 27.6436 67.5313 27.7503 64.6514 27.8571C64.6514 31.3792 64.6514 35.0081 64.6514 38.5302C68.2726 41.9406 71.8939 41.2006 75.5151 38.6481ZM75.5309 38.7436L75.5309 38.6369C75.5257 38.6406 75.5204 38.6444 75.5151 38.6481C75.5202 38.68 75.5255 38.7118 75.5309 38.7436Z" fill-rule="evenodd"  fill="#090909" >
</path>
<path d="M51.9585 25.5087C60.2781 24.7616 60.2781 24.7616 60.3848 15.0491C51.8518 15.5827 51.8518 15.5827 51.9585 25.5087Z"   fill="#101010" >
</path>
<path d="M39.0524 27.857C35.7459 31.3791 35.7459 35.008 38.3058 38.8503C41.5056 41.0917 44.4922 40.8782 47.4787 38.5301L47.6921 38.3166C47.2654 28.9243 47.2654 28.9243 38.9458 27.7502L39.0524 27.857Z"   fill="#1A1A1A" >
</path>
<path d="M124.062 89.2272L123.956 89.4406C128.329 89.5474 132.595 89.5474 136.968 89.5474C137.075 76.7396 137.182 63.9319 137.288 51.1241C133.128 51.1241 128.862 51.0174 124.702 50.9106C124.596 55.2866 124.489 59.7693 124.382 64.1453C119.049 72.4704 118.942 80.9021 124.062 89.2272Z"   fill="#DFDDB6" >
</path>
<path d="M88.2238 138.537C94.4102 136.509 101.13 135.015 98.7833 125.836C94.1968 125.836 89.6104 125.836 85.0239 125.943C75.7443 126.05 75.7443 126.156 75.3176 135.229C75.3176 136.296 75.3176 137.363 75.3176 138.43C79.5841 139.178 83.8506 139.178 88.2238 138.537Z"   fill="#E2E1B9" >
</path>
<path d="M73.1843 138.431C73.1843 137.043 73.2909 135.656 73.1843 134.268C72.651 126.263 72.651 126.263 64.6513 125.943C52.0652 125.516 52.0652 125.516 51.8518 138.431C58.9982 139.284 66.0379 139.178 73.1843 138.431Z"   fill="#FDFDF7" >
</path>
<path d="M92.2769 141.099C89.8237 141.312 88.437 142.593 88.437 145.155C88.437 147.716 89.8237 148.997 92.2769 149.21C94.4101 149.424 96.5434 149.317 98.6766 149.424C99.6366 146.542 99.6366 143.767 98.6766 140.885C96.5434 140.992 94.4101 140.992 92.2769 141.099Z"   fill="#333333" >
</path>
<path d="M49.8252 112.601C49.1853 111.961 48.332 111.427 47.372 111C39.159 110.894 40.5456 100.968 34.7859 98.5128C31.1594 97.6589 27.7462 97.5522 25.2929 101.074C25.6129 109.293 23.9063 117.618 26.2529 125.729C33.9326 127.117 41.7189 125.729 49.5053 126.476C49.6119 122.741 49.6119 119.005 49.7186 115.27C50.4652 114.416 50.4652 113.455 49.8252 112.601Z"   fill="#FBFBF6" >
</path>
<path d="M13.6668 100.328C12.9201 100.328 12.1735 100.221 11.4269 100.221C11.3202 101.075 11.3202 101.822 11.3202 102.676C13.0268 102.462 14.84 102.035 16.5466 102.035C24.4396 101.929 24.5463 101.929 24.5463 110.147C24.5463 115.483 24.2263 120.713 24.013 126.05C24.7596 125.836 25.5063 125.73 26.2529 125.623C26.2529 117.191 26.2529 108.759 26.2529 100.328C21.9864 96.3785 17.7199 96.9121 13.6668 100.328Z"   fill="#EAEBEC" >
</path>
<path d="M98.6767 115.697C101.343 118.578 98.7833 122.314 100.383 125.409C100.703 125.729 100.917 125.943 101.237 126.263C108.953 130.177 116.67 131.26 124.283 125.98C125.127 118.211 124.808 110.337 124.489 102.569C111.369 100.648 98.25 99.4735 85.0239 100.221C81.7174 100.434 77.9842 98.9398 75.3176 102.355C78.1975 105.237 81.6107 105.984 85.5572 105.557C90.037 105.877 94.6235 106.091 99.1033 105.557C101.663 105.771 104.65 104.917 106.463 107.799C104.436 110.467 101.663 109.72 98.9966 109.826C94.4102 109.399 89.9304 109.613 85.4505 109.933C81.6107 109.613 78.1975 110.467 75.3176 113.242C76.9176 115.697 79.5841 115.27 81.9307 115.376C87.4771 115.483 93.1302 115.59 98.6767 115.697ZM124.276 126.05L124.489 125.836C124.42 125.885 124.352 125.933 124.283 125.98C124.281 126.003 124.278 126.026 124.276 126.05Z" fill-rule="evenodd"  fill="#D9D9B1" >
</path>
<path d="M40.0123 61.904C39.799 58.0616 39.9057 54.1126 36.8125 51.1241C35.4259 48.9895 32.4393 48.8828 30.946 46.7481C30.6261 42.9058 34.5726 43.5462 36.2792 41.8385C37.0258 41.1981 37.5591 40.3442 37.6658 39.2769C37.3458 38.3164 36.7058 37.4625 35.8525 36.9288C32.7593 35.5413 29.6661 35.4346 26.5729 36.5019C25.7196 37.0356 24.8663 37.676 24.013 38.3164C20.5998 39.7039 16.44 37.1423 13.2401 40.1308C13.3468 52.4049 13.3468 64.679 13.2401 76.8463C13.2401 84.9579 11.6402 87.8397 23.693 87.4127C27.3195 84.8512 27.1062 80.7954 27.1062 77.0598C27.1062 70.7627 29.6661 67.2405 35.9592 66.4934C36.9191 66.0665 37.8791 65.6396 38.7324 64.8924C39.479 64.0386 39.9057 63.078 40.0123 61.904Z"   fill="#373737" >
</path>
<path d="M23.7997 89.5476C27.9595 93.7101 32.4393 93.1765 37.0258 90.4014C40.6523 86.5591 40.5456 81.8629 40.2256 77.06C40.5456 72.3639 40.5456 67.7744 36.9191 64.1455C35.5325 64.1455 34.1459 64.0388 32.7593 64.0388C24.8663 64.2523 24.9729 64.2523 24.653 72.0437C24.4396 77.1668 25.5062 82.3966 23.9063 87.5197C24.1196 88.1601 24.013 88.9072 23.7997 89.5476Z"   fill="#F7F7F2" >
</path>
<path d="M36.8124 89.6544C32.4393 89.6544 28.0661 89.5476 23.693 89.5476C22.3064 89.4409 20.9197 89.4409 19.4265 89.2274C13.9867 88.4803 11.8535 90.9352 12.6001 96.2717C12.8134 97.6592 13.1334 98.94 13.4534 100.327C17.7199 100.327 21.9864 100.327 26.2529 100.327C29.666 100.327 33.1859 100.327 36.5991 100.327C37.0257 100.114 37.4524 99.7938 37.879 99.4736C39.6923 96.4852 39.6923 93.6034 37.9857 90.615C37.5591 90.2948 37.2391 89.9746 36.8124 89.6544Z"   fill="#FCFEEA" >
</path>
<path d="M36.1725 29.0309C36.4925 28.7107 36.8125 28.2838 37.1325 27.9636C37.0258 27.1098 36.8125 26.3626 36.7058 25.5088C32.4393 25.5088 28.2795 25.6155 24.1197 25.6155C24.1197 29.8848 24.1197 34.0473 24.1197 38.3165C24.8663 38.2098 25.5063 38.2098 26.2529 38.2098C29.1328 34.7944 31.586 30.7386 36.1725 29.0309Z"   fill="#EAEBEC" >
</path>
<path d="M101.237 127.971C106.143 130.959 105.396 133.841 101.023 136.509C101.77 138.751 103.583 138.537 105.29 138.537C111.583 138.537 117.876 138.43 124.169 138.43C124.276 134.268 124.382 129.999 124.489 125.836C116.703 125.943 109.023 126.156 101.237 126.263C101.023 126.903 101.023 127.544 101.237 127.971Z"   fill="#343434" >
</path>
<path d="M101.023 136.616C103.05 136.509 105.183 136.509 107.316 136.402C109.769 136.296 111.263 135.015 111.263 132.453C111.263 129.999 109.983 128.504 107.53 128.291C105.503 128.077 103.37 128.184 101.236 128.077C99.9565 130.959 100.17 133.734 101.023 136.616Z"   fill="#333333" >
</path>
<path d="M98.6764 125.623C99.2097 125.623 99.8497 125.623 100.383 125.409C100.596 121.994 102.41 118.365 98.6764 115.697C98.6764 119.005 98.6764 122.314 98.6764 125.623Z"   fill="#EAEBEC" >
</path>
<path d="M39.2657 38.6368C39.1591 35.1146 39.1591 31.4858 39.0524 27.8569C38.3058 27.5367 37.6658 27.6434 37.0258 27.9636L37.0258 27.8569C33.9326 31.2723 33.9326 34.9012 36.9191 38.4233C37.0258 39.1704 37.0258 39.9175 37.1325 40.6647C38.7324 40.9849 39.479 40.3445 39.2657 38.6368Z"   fill="#222222" >
</path>
<path d="M61.1315 65.5332C58.2516 73.1111 58.2516 80.6891 61.2381 88.267C61.7714 88.5872 62.1981 89.0141 62.6247 89.441C75.1042 89.1208 75.2109 89.1208 75.1042 76.0996C74.9975 63.612 77.3441 63.7188 62.5181 64.2524C61.9848 64.6794 61.5581 64.9996 61.1315 65.5332Z"   fill="#41413F" >
</path>
<path d="M112.116 76.4194C112.116 78.5541 112.329 80.6887 112.116 82.7166C111.583 87.9464 114.143 89.6541 118.942 89.2272C120.649 89.0137 122.462 89.2272 124.169 89.2272C125.129 80.9022 124.809 72.5771 124.382 64.1453C110.089 63.7184 112.329 63.6117 112.116 76.4194Z"   fill="#40403F" >
</path>
<path d="M46.412 62.1178C46.6254 63.2918 47.1587 64.3591 48.012 65.1063C48.9719 65.8534 50.0386 66.2803 51.2118 66.6005C55.387 67.3316 59.2557 67.1429 62.5181 64.0338C62.5199 59.8019 62.6256 55.5699 62.7314 51.3379C58.3582 51.3379 54.0917 51.2312 49.7186 51.2312C46.5187 54.3264 46.6254 58.2755 46.412 62.1178ZM62.518 64.1457L62.7314 63.8255C62.6606 63.8963 62.5895 63.9658 62.5181 64.0338C62.5181 64.0711 62.518 64.1084 62.518 64.1457Z" fill-rule="evenodd"  fill="#3D3D3C" >
</path>
<path d="M62.6247 51.551C74.5709 51.4443 74.5709 51.4443 75.4242 39.7038C75.4242 39.2769 75.5309 38.9567 75.5309 38.6365C71.9044 38.6365 68.2778 38.5298 64.6513 38.5298C61.0248 42.3721 63.0514 47.0683 62.6247 51.551Z"   fill="#3A3A3A" >
</path>
<path d="M49.6119 99.26C48.6519 100.221 47.9053 101.181 47.4786 102.462C46.3053 106.411 46.9453 110.04 49.7185 113.135C53.985 114.736 58.2515 114.95 62.4113 112.922C62.3047 108.759 62.3047 104.49 62.198 100.221C58.2515 96.6985 53.985 96.9119 49.6119 99.26Z"   fill="#FEB0AF" >
</path>
<path d="M62.5143 89.5665C58.281 86.2317 53.8389 85.8395 49.292 89.0138C46.6255 92.8562 46.4121 96.5918 49.8253 100.221C53.9852 100.221 58.0383 100.221 62.1982 100.221C62.3035 96.6349 62.4089 93.0492 62.5143 89.5665ZM62.6248 89.6542L62.5181 89.4408C62.5169 89.4827 62.5156 89.5246 62.5143 89.5665C62.5512 89.5955 62.588 89.6248 62.6248 89.6542Z" fill-rule="evenodd"  fill="#FF9191" >
</path>
<path d="M85.9839 102.782C82.464 102.675 78.8375 102.569 75.3176 102.462C75.3176 106.091 75.3176 109.72 75.3176 113.349C78.8375 113.135 82.464 113.028 85.9839 112.922C88.9704 109.506 88.8637 106.091 85.9839 102.782Z"   fill="#363636" >
</path>
<path d="M49.7186 115.27C53.9851 114.629 58.7849 117.084 62.4114 112.922C58.1449 113.028 53.9851 113.028 49.7186 113.135C49.7186 113.882 49.7186 114.523 49.7186 115.27Z"   fill="#FEDCDA" >
</path>
<path d="M51.9585 44.4003C52.0652 46.7484 53.1318 48.4561 55.6917 48.6696C58.7849 48.9898 60.1715 47.1753 60.2782 44.2936C60.3848 41.5186 60.4915 38.7436 60.3848 35.9686C60.1715 28.8176 60.1715 28.8176 51.8518 27.7502C51.8518 33.3003 51.8518 38.957 51.9585 44.4003Z"   fill="#070707" >
</path>
<path d="M35.8525 48.0289C36.2792 48.3491 36.5992 48.776 37.0258 49.0962C46.5188 50.1635 48.652 48.0289 47.4787 38.5298C44.8122 38.5298 42.039 38.6365 39.2657 38.6365C38.5191 39.2769 37.8791 40.024 37.1325 40.6644C34.7859 42.799 34.4659 45.2539 35.8525 48.0289Z"   fill="#080808" >
</path>
<path d="M37.0258 51.1243C37.3458 54.7531 35.7458 58.8089 39.0524 61.9041C39.479 61.6907 39.799 61.4772 40.2256 61.2637C42.2522 57.8483 44.3855 57.8483 46.5187 61.2637C46.9454 61.4772 47.2653 61.7974 47.692 62.0109C50.9985 58.9156 49.2919 54.8599 49.7186 51.231C45.4521 51.231 41.1856 51.231 37.0258 51.1243Z"   fill="#282929" >
</path>
<path d="M36.9192 49.203C33.3993 46.2146 29.7728 46.2146 26.2529 49.203C29.2395 52.6184 33.2926 50.9107 36.9192 51.2309C37.0258 50.4838 37.0258 49.7367 36.9192 49.203Z"   fill="#282929" >
</path>
<path d="M37.1325 100.327L36.5992 100.327C36.7058 101.608 36.8125 102.996 36.9191 104.383C37.5591 112.815 37.5591 112.815 45.6654 113.135C46.9454 113.242 48.332 113.135 49.7186 113.135C49.7186 109.613 49.7186 105.984 49.7186 102.462C45.9854 99.26 41.8256 98.1927 37.1325 100.327Z"   fill="#FEDCDA" >
</path>
<path d="M100.917 112.922C103.796 109.613 103.903 106.198 100.917 102.782C95.9034 101.928 90.997 101.928 85.9839 102.782C85.9839 106.198 85.9839 109.506 85.9839 112.922C90.997 113.776 95.9034 113.669 100.917 112.922Z"   fill="#363636" >
</path>
<path d="M105.076 113.562C109.77 114.096 112.223 112.922 112.116 107.372C111.903 101.928 108.703 102.035 105.076 102.248C103.69 102.355 102.303 102.569 100.917 102.782C100.917 106.091 100.917 109.506 100.917 112.922C102.303 113.135 103.69 113.455 105.076 113.562Z"   fill="#333333" >
</path>
<path d="M39.159 63.9322C38.4124 64.0389 37.5591 64.0389 36.8125 64.1457C37.0258 68.0947 37.1324 72.1505 37.2391 76.0996C40.8656 80.4756 45.4521 80.7958 49.3986 77.4871C53.8784 73.7515 53.5584 68.8419 50.1452 64.2524C49.2919 64.1457 48.4386 64.1457 47.5853 64.0389C44.8121 61.7976 42.0389 61.5841 39.159 63.9322Z"   fill="#444443" >
</path>
<path d="M26.2529 38.2096C29.7727 38.3163 33.3992 38.3163 36.9191 38.423C36.9191 34.9009 37.0258 31.3788 37.0258 27.8566C26.9995 27.0028 25.6129 28.497 26.2529 38.2096Z"   fill="#E5E5E5" >
</path>
<path d="M37.1325 40.7712C26.9995 40.7712 26.9995 40.7712 26.3596 49.0963C29.8794 49.0963 33.5059 49.0963 37.0258 49.0963C37.0258 46.3213 37.0258 43.5463 37.1325 40.7712Z"   fill="#222222" >
</path>
<path d="M47.6921 62.0109L47.5854 61.9042C44.8122 59.6628 41.9323 59.6628 39.1591 61.9042L39.0524 62.0109C39.0524 62.6513 39.0524 63.2917 39.1591 63.9321C42.039 63.9321 44.8122 64.0388 47.5854 64.0388C47.5854 63.3984 47.5854 62.6513 47.6921 62.0109Z"   fill="#282929" >
</path>
<path d="M37.0258 89.6544L37.2391 89.8678C41.5056 93.4967 45.6654 93.1765 49.9319 89.8678C54.1984 89.7611 58.5716 89.7611 62.838 89.6544C62.7314 81.0091 62.7314 72.4706 62.7314 63.9321C58.4649 64.0389 54.3051 64.1456 50.1452 64.2523C49.6119 77.2735 49.6119 77.2735 37.2391 76.0995C37.1325 80.5822 37.0258 85.0649 37.0258 89.6544Z"   fill="#FAFAE5" >
</path>
<path d="M37.1324 100.22C40.9723 102.782 45.4521 102.248 49.7186 102.355C49.8252 101.608 49.8252 100.861 49.8252 100.114C49.8252 96.6983 49.8252 93.1761 49.8252 89.7607C45.5587 89.7607 41.3989 89.7607 37.1324 89.7607C37.1324 93.2829 37.1324 96.805 37.1324 100.22Z"   fill="#FEB3B2" >
</path>
<path d="M47.4787 57.8484C47.2654 55.5003 46.3054 53.8993 43.8522 53.6859C40.9723 53.4724 39.4791 54.9666 39.2657 57.8484C39.1591 59.2359 39.1591 60.5167 39.1591 61.9042C41.9323 61.9042 44.8122 61.9042 47.5854 61.9042C47.4787 60.5167 47.5854 59.1292 47.4787 57.8484Z"   fill="#1C1C1C" >
</path>
</svg>
